<svg width="20" height="20" viewBox="0 0 18 18" fill="none" xmlns="http://www.w3.org/2000/svg">
  <path d="M15.3 17C14.3 17.9 13.25 17.83 12.2 17.43C11.15 17.02 10.18 17 9.08 17.43C7.7 17.95 6.95 17.83 6.15 17C1.2 11.88 1.88 4.65 6.95 4.41C8.24 4.48 9.09 5.11 9.78 5.17C10.9 4.94 11.96 4.29 13.17 4.37C14.68 4.48 15.77 5.03 16.56 6.08C13.6 7.85 14.22 11.82 17.05 12.9C16.5 14.23 15.79 15.55 14.55 16.78L15.3 17ZM9.79 4.34C9.66 2.27 11.46 0.63 13.46 0.45C13.72 2.89 11.27 4.54 9.79 4.34Z" fill="#FFFFFF"/>
</svg>
